<?xml version="1.0" encoding="utf-8"?>
<!-- Generator: Adobe Illustrator 19.0.1, SVG Export Plug-In . SVG Version: 6.00 Build 0)  -->
<svg version="1.1" id="Layer_1" xmlns="http://www.w3.org/2000/svg" xmlns:xlink="http://www.w3.org/1999/xlink" x="0px" y="0px"
	 viewBox="0 0 282.4 390.5" style="enable-background:new 0 0 282.4 390.5;" xml:space="preserve">
<style type="text/css">
	.st0{fill:none;stroke:#000000;stroke-width:20;stroke-miterlimit:10;}
	.st1{fill:#FFFFFF;}
	.st2{fill:#E71C3A;}
	.st3{fill:#7C287D;}
	.st4{fill:#3953A4;}
	.st5{fill:#0D8140;}
	.st6{fill:#F6EC13;}
	.st7{fill:#FAA41A;}
	.st8{fill:#ED1F24;}
	.st9{fill:#FAA31A;}
</style>
<g>
	<path class="st9" d="M276.4,370.7H6c-3.3,0-6,2.7-6,6v7.8c0,3.3,2.7,6,6,6h270.4c3.3,0,6-2.7,6-6v-7.8
		C282.4,373.4,279.7,370.7,276.4,370.7z"/>
	<path class="st9" d="M276.4,342.2H6c-3.3,0-6,2.7-6,6v7.8c0,3.3,2.7,6,6,6h270.4c3.3,0,6-2.7,6-6v-7.8
		C282.4,344.9,279.7,342.2,276.4,342.2z"/>
	<path class="st9" d="M276.4,275H6c-3.3,0-6,2.7-6,6v7.8c0,3.3,2.7,6,6,6h270.4c3.3,0,6-2.7,6-6V281
		C282.4,277.7,279.7,275,276.4,275z"/>
	<path class="st9" d="M276.4,246.5H6c-3.3,0-6,2.7-6,6v7.8c0,3.3,2.7,6,6,6h270.4c3.3,0,6-2.7,6-6v-7.8
		C282.4,249.1,279.7,246.5,276.4,246.5z"/>
	<path class="st9" d="M276.4,217.9H6c-3.3,0-6,2.7-6,6v7.8c0,3.3,2.7,6,6,6h270.4c3.3,0,6-2.7,6-6v-7.8
		C282.4,220.6,279.7,217.9,276.4,217.9z"/>
	<path class="st9" d="M276.4,189.3H6c-3.3,0-6,2.7-6,6v7.8c0,3.3,2.7,6,6,6h270.4c3.3,0,6-2.7,6-6v-7.8
		C282.4,192,279.7,189.3,276.4,189.3z"/>
	<g>
		<polygon class="st1" points="46.8,322.6 42.4,336.1 53.9,327.8 65.3,336.1 61,322.6 72.4,314.3 58.3,314.3 53.9,300.9 49.5,314.3 
			35.4,314.3 		"/>
		<polygon class="st1" points="134.1,322.6 129.8,336.1 141.2,327.8 152.7,336.1 148.3,322.6 159.7,314.3 145.6,314.3 141.2,300.9 
			136.8,314.3 122.7,314.3 		"/>
		<polygon class="st1" points="221.5,322.6 217.1,336.1 228.5,327.8 240,336.1 235.6,322.6 247.1,314.3 232.9,314.3 228.5,300.9 
			224.2,314.3 210,314.3 		"/>
	</g>
	<path class="st1" d="M257.9,108.2c-2.1-28.3-14.5-54.8-34.9-74.8C201,11.9,171.9,0,141.2,0c-30.7,0-59.8,11.9-81.8,33.4
		c-20.4,19.9-32.8,46.5-34.9,74.8l-0.3,72.2h39v-62.3c0-43.2,34.6-78.7,77.2-79.1c20.9-0.2,40.7,7.8,55.6,22.6
		c14.9,14.8,23.1,34.5,23.1,55.4v7.9c0,8.5,7,15.5,15.5,15.5h8c8.5,0,15.5-7,15.5-15.6l-0.3-16.5L257.9,108.2z"/>
</g>
</svg>
