
<svg width="324px" height="482px" viewBox="0 0 324 482" version="1.1" xmlns="http://www.w3.org/2000/svg" xmlns:xlink="http://www.w3.org/1999/xlink">
    <!-- Generator: Sketch 46.1 (44463) - http://www.bohemiancoding.com/sketch -->
    <desc>Created with Sketch.</desc>
    <defs>
        <radialGradient cx="52.0747185%" cy="34.5323947%" fx="52.0747185%" fy="34.5323947%" r="33.110795%" gradientTransform="translate(0.520747,0.345324),scale(1.000000,0.941392),rotate(93.382455),scale(1.000000,1.478382),translate(-0.520747,-0.345324)" id="radialGradient-1">
            <stop stop-color="#FFFFFF" offset="0%"></stop>
            <stop stop-color="#B4B4B4" offset="100%"></stop>
        </radialGradient>
        <path d="M0,142.602151 L0,124 L0.0773203795,124 C2.44808832,55.1152882 59.0376115,0 128.5,0 C197.962388,0 254.551912,55.1152882 256.922679,123.999974 L257,124 L257,273 L205.5,273 L206,273 L206,131 C206,88.4740743 171.525926,54 129,54 C86.4740743,54 52,88.4740743 52,131 C52,131.369632 52.0026045,131.738656 52.0077962,132.107055 L52.0777618,142.042175 L-2.66453526e-15,142.602151 Z" id="path-2"></path>
        <filter x="-1.0%" y="-0.9%" width="101.9%" height="101.8%" filterUnits="objectBoundingBox" id="filter-3">
            <feOffset dx="0" dy="-5" in="SourceAlpha" result="shadowOffsetInner1"></feOffset>
            <feComposite in="shadowOffsetInner1" in2="SourceAlpha" operator="arithmetic" k2="-1" k3="1" result="shadowInnerInner1"></feComposite>
            <feColorMatrix values="0 0 0 0 0   0 0 0 0 0   0 0 0 0 0  0 0 0 0.268738678 0" type="matrix" in="shadowInnerInner1"></feColorMatrix>
        </filter>
        <linearGradient x1="50%" y1="0.956632653%" x2="50%" y2="99.613361%" id="linearGradient-4">
            <stop stop-color="#FFFFFF" offset="0%"></stop>
            <stop stop-color="#FFFFFF" stop-opacity="0" offset="100%"></stop>
        </linearGradient>
        <linearGradient x1="51.8961589%" y1="0%" x2="51.8961608%" y2="35.6695131%" id="linearGradient-5">
            <stop stop-color="#915D00" offset="0%"></stop>
            <stop stop-color="#DC8D05" offset="100%"></stop>
        </linearGradient>
        <linearGradient x1="0%" y1="50%" x2="100%" y2="50%" id="linearGradient-6">
            <stop stop-color="#FFB100" stop-opacity="0.5" offset="0%"></stop>
            <stop stop-color="#FFCA09" stop-opacity="0.5" offset="44.821762%"></stop>
            <stop stop-color="#B56400" stop-opacity="0.5" offset="100%"></stop>
        </linearGradient>
        <linearGradient x1="50%" y1="0%" x2="50%" y2="100%" id="linearGradient-7">
            <stop stop-color="#E19932" offset="0%"></stop>
            <stop stop-color="#FFD960" offset="100%"></stop>
        </linearGradient>
        <path d="M522,3339 L840,3339 L840,3370 L840,3370 C840,3376.62742 834.627417,3382 828,3382 L534,3382 L534,3382 C527.372583,3382 522,3376.62742 522,3370 L522,3339 Z" id="path-8"></path>
        <linearGradient x1="51.8961589%" y1="0%" x2="51.8961608%" y2="35.6695131%" id="linearGradient-9">
            <stop stop-color="#FBBB48" offset="0%"></stop>
            <stop stop-color="#FFC053" offset="100%"></stop>
        </linearGradient>
        <linearGradient x1="48.0393257%" y1="50.0006855%" x2="53.9362059%" y2="50.0006855%" id="linearGradient-10">
            <stop stop-color="#EFA62F" stop-opacity="0.5" offset="0%"></stop>
            <stop stop-color="#CB8B52" stop-opacity="0.5" offset="83.396986%"></stop>
            <stop stop-color="#DB7C07" stop-opacity="0.5" offset="100%"></stop>
        </linearGradient>
        <path d="M522,3142 L840,3142 L840,3173 L840,3173 C840,3179.62742 834.627417,3185 828,3185 L534,3185 L534,3185 C527.372583,3185 522,3179.62742 522,3173 L522,3142 Z" id="path-11"></path>
        <filter x="-0.6%" y="-4.7%" width="101.3%" height="109.3%" filterUnits="objectBoundingBox" id="filter-12">
            <feGaussianBlur stdDeviation="1.5" in="SourceAlpha" result="shadowBlurInner1"></feGaussianBlur>
            <feOffset dx="0" dy="1" in="shadowBlurInner1" result="shadowOffsetInner1"></feOffset>
            <feComposite in="shadowOffsetInner1" in2="SourceAlpha" operator="arithmetic" k2="-1" k3="1" result="shadowInnerInner1"></feComposite>
            <feColorMatrix values="0 0 0 0 0.701318027   0 0 0 0 0.451043751   0 0 0 0 0  0 0 0 1 0" type="matrix" in="shadowInnerInner1"></feColorMatrix>
        </filter>
        <linearGradient x1="50%" y1="119.290865%" x2="50%" y2="0%" id="linearGradient-13">
            <stop stop-color="#A45900" offset="0%"></stop>
            <stop stop-color="#A45900" stop-opacity="0" offset="100%"></stop>
        </linearGradient>
        <linearGradient x1="57.8932159%" y1="50%" x2="50%" y2="50%" id="linearGradient-14">
            <stop stop-color="#EB9700" offset="0%"></stop>
            <stop stop-color="#FFA400" offset="100%"></stop>
        </linearGradient>
        <linearGradient x1="50%" y1="0%" x2="50%" y2="100%" id="linearGradient-15">
            <stop stop-color="#CA8017" offset="0%"></stop>
            <stop stop-color="#FFB52B" offset="100%"></stop>
        </linearGradient>
        <rect id="path-16" x="522" y="3185" width="318" height="12" rx="2"></rect>
        <rect id="path-17" x="522" y="3197" width="318" height="12" rx="2"></rect>
        <rect id="path-18" x="522" y="3209" width="318" height="12" rx="2"></rect>
        <rect id="path-19" x="522" y="3221" width="318" height="12" rx="2"></rect>
        <rect id="path-20" x="522" y="3233" width="318" height="12" rx="2"></rect>
        <rect id="path-21" x="522" y="3245" width="318" height="12" rx="2"></rect>
        <rect id="path-22" x="522" y="3257" width="318" height="12" rx="2"></rect>
        <rect id="path-23" x="522" y="3269" width="318" height="12" rx="2"></rect>
        <rect id="path-24" x="522" y="3281" width="318" height="12" rx="2"></rect>
        <rect id="path-25" x="522" y="3293" width="318" height="12" rx="2"></rect>
        <rect id="path-26" x="522" y="3305" width="318" height="12" rx="2"></rect>
        <rect id="path-27" x="522" y="3317" width="318" height="12" rx="2"></rect>
        <linearGradient x1="51.9541363%" y1="50%" x2="0%" y2="50%" id="linearGradient-28">
            <stop stop-color="#E39200" offset="0%"></stop>
            <stop stop-color="#F9B800" offset="21.450986%"></stop>
            <stop stop-color="#FFA500" offset="89.2963654%"></stop>
            <stop stop-color="#DA8B02" offset="100%"></stop>
        </linearGradient>
    </defs>
    <g id="Page-2" stroke="none" stroke-width="1" fill="none" fill-rule="evenodd">
        <g id="Artboard" transform="translate(-519.000000, -2900.000000)">
            <g id="Group-6" transform="translate(553.000000, 2900.000000)">
                <g id="Combined-Shape">
                    <use fill="url(#radialGradient-1)" fill-rule="evenodd" xlink:href="#path-2"></use>
                    <use fill="black" fill-opacity="1" filter="url(#filter-3)" xlink:href="#path-2"></use>
                    <path stroke="#FFFFFF" stroke-width="1" d="M0.5,142.096745 L51.5742668,141.54756 L51.5078458,132.1141 C51.5026167,131.743048 51.5,131.371675 51.5,131 C51.5,88.1979319 86.1979319,53.5 129,53.5 C171.802068,53.5 206.5,88.1979319 206.5,131 L206.5,272.5 L256.5,272.5 L256.5,124.49983 L256.439585,124.49981 L256.422975,124.017172 C254.055603,55.2311464 197.522565,0.5 128.5,0.5 C59.4774309,0.5 2.94439678,55.2311504 0.577024519,124.017198 L0.560408185,124.5 L0.5,124.5 L0.5,142.096745 Z"></path>
                </g>
                <rect id="Rectangle-18" fill="#E3E3E3" x="0" y="134" width="52" height="8"></rect>
            </g>
            <path d="M571,3038 C575,2958 626.388889,2921 683.388889,2921 C740.388889,2921 791,2952 790,3024 C789.333333,3072 789.333333,3111.33333 790,3142 L778,3142 C776.666667,3107.33333 776.666667,3068 778,3024 C780,2958 720,2934 683.388889,2935 C646.777778,2936 586,2958 583,3038 C578,3038 577,3038 571,3038 Z" id="Path-2" fill-opacity="0.7" fill="url(#linearGradient-4)"></path>
            <ellipse id="Oval-13-Copy" fill="#FFFFFF" cx="579" cy="3040" rx="26" ry="8"></ellipse>
            <g id="Rectangle-14">
                <use fill="url(#linearGradient-5)" fill-rule="evenodd" xlink:href="#path-8"></use>
                <use fill="url(#linearGradient-6)" fill-rule="evenodd" xlink:href="#path-8"></use>
                <path stroke="url(#linearGradient-7)" stroke-width="1" d="M522.5,3339.5 L522.5,3370 C522.5,3376.35127 527.648725,3381.5 534,3381.5 L828,3381.5 C834.351275,3381.5 839.5,3376.35127 839.5,3370 L839.5,3339.5 L522.5,3339.5 Z"></path>
            </g>
            <g id="Rectangle-14-Copy" transform="translate(681.000000, 3163.500000) scale(1, -1) translate(-681.000000, -3163.500000) ">
                <use fill="url(#linearGradient-9)" fill-rule="evenodd" xlink:href="#path-11"></use>
                <use fill="url(#linearGradient-10)" fill-rule="evenodd" xlink:href="#path-11"></use>
                <use fill="black" fill-opacity="1" filter="url(#filter-12)" xlink:href="#path-11"></use>
            </g>
            <path d="M840,3360 L840,3370 L840,3370 C840,3376.62742 834.627417,3382 828,3382 L534,3382 C527.372583,3382 522,3376.62742 522,3370 L522,3360 L840,3360 Z" id="Combined-Shape" fill-opacity="0.900000036" fill="url(#linearGradient-13)"></path>
            <path d="M840,3142 L840,3152 L840,3152 C840,3158.62742 834.627417,3164 828,3164 L534,3164 C527.372583,3164 522,3158.62742 522,3152 L522,3142 L840,3142 Z" id="Combined-Shape-Copy" fill-opacity="0.900000036" fill="url(#linearGradient-13)" transform="translate(681.000000, 3153.000000) scale(1, -1) translate(-681.000000, -3153.000000) "></path>
            <g id="Rectangle-7">
                <use fill="url(#linearGradient-14)" fill-rule="evenodd" xlink:href="#path-16"></use>
                <rect stroke="url(#linearGradient-15)" stroke-width="1" x="522.5" y="3185.5" width="317" height="11" rx="2"></rect>
            </g>
            <g id="Rectangle-7-Copy">
                <use fill="url(#linearGradient-14)" fill-rule="evenodd" xlink:href="#path-17"></use>
                <rect stroke="url(#linearGradient-15)" stroke-width="1" x="522.5" y="3197.5" width="317" height="11" rx="2"></rect>
            </g>
            <g id="Rectangle-7-Copy-2">
                <use fill="url(#linearGradient-14)" fill-rule="evenodd" xlink:href="#path-18"></use>
                <rect stroke="url(#linearGradient-15)" stroke-width="1" x="522.5" y="3209.5" width="317" height="11" rx="2"></rect>
            </g>
            <g id="Rectangle-7-Copy-3">
                <use fill="url(#linearGradient-14)" fill-rule="evenodd" xlink:href="#path-19"></use>
                <rect stroke="url(#linearGradient-15)" stroke-width="1" x="522.5" y="3221.5" width="317" height="11" rx="2"></rect>
            </g>
            <g id="Rectangle-7-Copy-4">
                <use fill="url(#linearGradient-14)" fill-rule="evenodd" xlink:href="#path-20"></use>
                <rect stroke="url(#linearGradient-15)" stroke-width="1" x="522.5" y="3233.5" width="317" height="11" rx="2"></rect>
            </g>
            <g id="Rectangle-7-Copy-5">
                <use fill="url(#linearGradient-14)" fill-rule="evenodd" xlink:href="#path-21"></use>
                <rect stroke="url(#linearGradient-15)" stroke-width="1" x="522.5" y="3245.5" width="317" height="11" rx="2"></rect>
            </g>
            <g id="Rectangle-7-Copy-6">
                <use fill="url(#linearGradient-14)" fill-rule="evenodd" xlink:href="#path-22"></use>
                <rect stroke="url(#linearGradient-15)" stroke-width="1" x="522.5" y="3257.5" width="317" height="11" rx="2"></rect>
            </g>
            <g id="Rectangle-7-Copy-7">
                <use fill="url(#linearGradient-14)" fill-rule="evenodd" xlink:href="#path-23"></use>
                <rect stroke="url(#linearGradient-15)" stroke-width="1" x="522.5" y="3269.5" width="317" height="11" rx="2"></rect>
            </g>
            <g id="Rectangle-7-Copy-8">
                <use fill="url(#linearGradient-14)" fill-rule="evenodd" xlink:href="#path-24"></use>
                <rect stroke="url(#linearGradient-15)" stroke-width="1" x="522.5" y="3281.5" width="317" height="11" rx="2"></rect>
            </g>
            <g id="Rectangle-7-Copy-9">
                <use fill="url(#linearGradient-14)" fill-rule="evenodd" xlink:href="#path-25"></use>
                <rect stroke="url(#linearGradient-15)" stroke-width="1" x="522.5" y="3293.5" width="317" height="11" rx="2"></rect>
            </g>
            <g id="Rectangle-7-Copy-10">
                <use fill="url(#linearGradient-14)" fill-rule="evenodd" xlink:href="#path-26"></use>
                <rect stroke="url(#linearGradient-15)" stroke-width="1" x="522.5" y="3305.5" width="317" height="11" rx="2"></rect>
            </g>
            <g id="Rectangle-7-Copy-11">
                <use fill="url(#linearGradient-14)" fill-rule="evenodd" xlink:href="#path-27"></use>
                <rect stroke="url(#linearGradient-15)" stroke-width="1" x="522.5" y="3317.5" width="317" height="11" rx="2"></rect>
            </g>
            <path d="M826,3328 L536,3328 L523.220486,3328 L523.220486,3328 C522.620619,3328 522.052429,3328.26925 521.672571,3328.73352 L521.672571,3328.73352 L519.452085,3331.44745 C519.159729,3331.80478 519,3332.25224 519,3332.71393 L519,3332.71393 L519,3343.49001 C519,3343.82465 519.083967,3344.15394 519.244209,3344.44772 L519.244209,3344.44772 L521.704202,3348.9577 C522.054669,3349.60023 522.728105,3350 523.459993,3350 L536,3350 L826,3350 L838.540007,3350 C839.271895,3350 839.945331,3349.60023 840.295798,3348.9577 L842.755791,3344.44772 C842.916033,3344.15394 843,3343.82465 843,3343.49001 L843,3332.71393 C843,3332.25224 842.840271,3331.80478 842.547915,3331.44745 L840.327429,3328.73352 C839.947571,3328.26925 839.379381,3328 838.779514,3328 L838.779514,3328 L826,3328 Z" id="Combined-Shape" fill="url(#linearGradient-28)"></path>
            <rect id="Rectangle-13" fill="#FFB507" x="522" y="3332" width="316" height="5" rx="2"></rect>
            <path d="M759,3133.2902 C766.044797,3131.84851 774.67582,3131 784,3131 C793.770212,3131 802.779365,3131.93163 810,3133.50113 L810,3142 L759,3142 L759,3133.2902 Z" id="Combined-Shape" fill-opacity="0.590324955" fill="#484848"></path>
            <ellipse id="Oval-13" fill="#7F7F7F" cx="579" cy="3042.5" rx="26" ry="5.5"></ellipse>
        </g>
    </g>
</svg>