
<svg width="21px" height="178px" viewBox="0 0 21 178" version="1.1" xmlns="http://www.w3.org/2000/svg" xmlns:xlink="http://www.w3.org/1999/xlink">
    <!-- Generator: Sketch 46.1 (44463) - http://www.bohemiancoding.com/sketch -->
    <desc>Created with Sketch.</desc>
    <defs>
        <filter x="-31.2%" y="-1.1%" width="156.2%" height="104.6%" filterUnits="objectBoundingBox" id="filter-1">
            <feOffset dx="0" dy="2" in="SourceAlpha" result="shadowOffsetOuter1"></feOffset>
            <feGaussianBlur stdDeviation="1" in="shadowOffsetOuter1" result="shadowBlurOuter1"></feGaussianBlur>
            <feColorMatrix values="0 0 0 0 0   0 0 0 0 0   0 0 0 0 0  0 0 0 0.5 0" type="matrix" in="shadowBlurOuter1" result="shadowMatrixOuter1"></feColorMatrix>
            <feMerge>
                <feMergeNode in="shadowMatrixOuter1"></feMergeNode>
                <feMergeNode in="SourceGraphic"></feMergeNode>
            </feMerge>
        </filter>
        <linearGradient x1="32.9784238%" y1="52.6401174%" x2="56.0851071%" y2="52.6401182%" id="linearGradient-2">
            <stop stop-color="#E8E8E8" offset="0%"></stop>
            <stop stop-color="#D4D4D4" offset="100%"></stop>
        </linearGradient>
        <path d="M6.69401222,2.40741243e-35 L6.69401222,2.40741243e-35 L6.69401222,0 C7.32703623,-1.16284625e-16 7.84582518,0.502364387 7.86618345,1.13506095 L10.0022061,67.5186196 L10.0022061,67.5186196 C10.0560227,69.1911397 8.74380428,70.5906121 7.07128417,70.6444288 C7.03881345,70.6454736 7.00632803,70.6459961 6.97384051,70.6459961 L6.97384051,70.6459961 L6.97384051,70.6459961 C5.28715095,70.6459961 3.91981891,69.2786641 3.91981891,67.5919745 C3.91981891,67.5672873 3.92011825,67.542601 3.92071686,67.517921 L5.53082677,1.13531449 L5.53082677,1.13531449 C5.54614189,0.503893173 6.06240519,1.16024328e-16 6.69401222,0 Z" id="path-3"></path>
        <filter x="-16.4%" y="-1.4%" width="132.9%" height="102.8%" filterUnits="objectBoundingBox" id="filter-4">
            <feMorphology radius="1" operator="erode" in="SourceAlpha" result="shadowSpreadInner1"></feMorphology>
            <feOffset dx="0" dy="-1" in="shadowSpreadInner1" result="shadowOffsetInner1"></feOffset>
            <feComposite in="shadowOffsetInner1" in2="SourceAlpha" operator="arithmetic" k2="-1" k3="1" result="shadowInnerInner1"></feComposite>
            <feColorMatrix values="0 0 0 0 0.666666667   0 0 0 0 0.666666667   0 0 0 0 0.666666667  0 0 0 0.388756793 0" type="matrix" in="shadowInnerInner1"></feColorMatrix>
        </filter>
        <path d="M6.98159926,50 L6.98159926,50 L6.98159926,50 C8.60677659,50 9.94516986,51.2769607 10.021476,52.9003457 L15.4263828,167.887757 L15.4263828,167.887757 C15.5690042,170.921973 13.2249035,173.497309 10.1906874,173.63993 C10.1046672,173.643974 10.0185639,173.645996 9.93244867,173.645996 L5.39537151,173.645996 L5.39537151,173.645996 C2.35780539,173.645996 -0.10462849,171.183562 -0.10462849,168.145996 C-0.10462849,168.081063 -0.103478594,168.016135 -0.101179343,167.951243 L3.97523779,52.901727 L3.97523779,52.901727 C4.03259972,51.2827902 5.36164652,50 6.98159926,50 Z" id="path-5"></path>
        <filter x="-7.2%" y="-0.8%" width="114.6%" height="101.6%" filterUnits="objectBoundingBox" id="filter-6">
            <feMorphology radius="1" operator="erode" in="SourceAlpha" result="shadowSpreadInner1"></feMorphology>
            <feOffset dx="0" dy="-1" in="shadowSpreadInner1" result="shadowOffsetInner1"></feOffset>
            <feComposite in="shadowOffsetInner1" in2="SourceAlpha" operator="arithmetic" k2="-1" k3="1" result="shadowInnerInner1"></feComposite>
            <feColorMatrix values="0 0 0 0 0.666666667   0 0 0 0 0.666666667   0 0 0 0 0.666666667  0 0 0 0.388756793 0" type="matrix" in="shadowInnerInner1"></feColorMatrix>
        </filter>
        <path d="M5.81249478,159 L9.45453188,159 L9.45453188,159 C12.311571,159 14.6928677,161.187522 14.9347805,164.034301 L15.2746913,168.034301 L15.2746913,168.034301 C15.5318898,171.060959 13.2867995,173.72305 10.2601418,173.980249 C10.1052576,173.99341 9.94988514,174 9.79444276,174 L5.68214728,174 L5.68214728,174 C2.64458116,174 0.182147279,171.537566 0.182147279,168.5 C0.182147279,168.440277 0.183120046,168.380558 0.185065193,168.320867 L0.315412696,164.320867 L0.315412696,164.320867 C0.412073753,161.35461 2.84466302,159 5.81249478,159 Z" id="path-7"></path>
        <filter x="-6.6%" y="-6.7%" width="113.2%" height="113.3%" filterUnits="objectBoundingBox" id="filter-8">
            <feMorphology radius="1" operator="erode" in="SourceAlpha" result="shadowSpreadInner1"></feMorphology>
            <feOffset dx="0" dy="-1" in="shadowSpreadInner1" result="shadowOffsetInner1"></feOffset>
            <feComposite in="shadowOffsetInner1" in2="SourceAlpha" operator="arithmetic" k2="-1" k3="1" result="shadowInnerInner1"></feComposite>
            <feColorMatrix values="0 0 0 0 0.666666667   0 0 0 0 0.666666667   0 0 0 0 0.666666667  0 0 0 1 0" type="matrix" in="shadowInnerInner1"></feColorMatrix>
        </filter>
    </defs>
    <g id="Page-1" stroke="none" stroke-width="1" fill="none" fill-rule="evenodd">
        <g id="Picks---SVG" transform="translate(-50.000000, -362.000000)">
            <g id="pick" filter="url(#filter-1)" transform="translate(53.000000, 362.000000)">
                <g id="Rectangle-22-Copy">
                    <use fill="url(#linearGradient-2)" fill-rule="evenodd" xlink:href="#path-3"></use>
                    <use fill="black" fill-opacity="1" filter="url(#filter-4)" xlink:href="#path-3"></use>
                </g>
                <g id="Rectangle-22">
                    <use fill="url(#linearGradient-2)" fill-rule="evenodd" xlink:href="#path-5"></use>
                    <use fill="black" fill-opacity="1" filter="url(#filter-6)" xlink:href="#path-5"></use>
                </g>
                <g id="Rectangle-21">
                    <use fill-opacity="0.5" fill="#BDBDBD" fill-rule="evenodd" xlink:href="#path-7"></use>
                    <use fill="black" fill-opacity="1" filter="url(#filter-8)" xlink:href="#path-7"></use>
                </g>
            </g>
        </g>
    </g>
</svg>