
<svg width="118px" height="238px" viewBox="0 0 118 238" version="1.1" xmlns="http://www.w3.org/2000/svg" xmlns:xlink="http://www.w3.org/1999/xlink">
    <!-- Generator: Sketch 46.1 (44463) - http://www.bohemiancoding.com/sketch -->
    <desc>Created with Sketch.</desc>
    <defs>
        <linearGradient x1="50%" y1="100%" x2="50%" y2="20.2616314%" id="linearGradient-1">
            <stop stop-color="#FFA400" offset="0%"></stop>
            <stop stop-color="#FF8000" offset="100%"></stop>
        </linearGradient>
        <polygon id="path-2" points="0 0 118 0 118 238 59 203.860881 0 238"></polygon>
        <polygon id="path-4" points="6 12 113 12 113 227 59.5 196.16004 6 227"></polygon>
        <filter x="0.0%" y="0.0%" width="100.0%" height="100.0%" filterUnits="objectBoundingBox" id="filter-6">
            <feOffset dx="0" dy="0" in="SourceAlpha" result="shadowOffsetOuter1"></feOffset>
            <feMorphology radius="1" operator="erode" in="SourceAlpha" result="shadowInner"></feMorphology>
            <feOffset dx="0" dy="0" in="shadowInner" result="shadowInner"></feOffset>
            <feComposite in="shadowOffsetOuter1" in2="shadowInner" operator="out" result="shadowOffsetOuter1"></feComposite>
            <feColorMatrix values="0 0 0 0 1   0 0 0 0 1   0 0 0 0 1  0 0 0 0.52063519 0" type="matrix" in="shadowOffsetOuter1"></feColorMatrix>
        </filter>
        <mask id="mask-7" maskContentUnits="userSpaceOnUse" maskUnits="objectBoundingBox" x="0" y="0" width="107" height="215" fill="white">
            <use xlink:href="#path-4"></use>
        </mask>
        <path d="M29.848,118.671 C28.6999943,117.704995 28.0910004,116.284009 28.021,114.408 C28.0069999,114.015998 28,113.414004 28,112.602 C28,111.789996 28.0069999,111.181002 28.021,110.775 C28.0770003,108.926991 28.6894942,107.502505 29.8585,106.5015 C31.0275058,105.500495 32.5919902,105 34.552,105 C36.4980097,105 38.0554942,105.500495 39.2245,106.5015 C40.3935058,107.502505 41.0059997,108.926991 41.062,110.775 C41.0900001,111.587004 41.104,112.195998 41.104,112.602 C41.104,113.022002 41.0900001,113.623996 41.062,114.408 C40.9919997,116.284009 40.3865057,117.704995 39.2455,118.671 C38.1044943,119.637005 36.5400099,120.12 34.552,120.12 C32.5639901,120.12 30.9960057,119.637005 29.848,118.671 Z M36.295,116.3085 C36.7290022,115.867498 36.9599999,115.192005 36.988,114.282 C37.0160001,113.469996 37.03,112.889002 37.03,112.539 C37.03,112.188998 37.0160001,111.622004 36.988,110.838 C36.9599999,109.927995 36.7290022,109.252502 36.295,108.8115 C35.8609978,108.370498 35.2800036,108.15 34.552,108.15 C33.8099963,108.15 33.2220022,108.370498 32.788,108.8115 C32.3539978,109.252502 32.1230001,109.927995 32.095,110.838 C32.0809999,111.230002 32.074,111.796996 32.074,112.539 C32.074,113.295004 32.0809999,113.875998 32.095,114.282 C32.1230001,115.192005 32.3539978,115.867498 32.788,116.3085 C33.2220022,116.749502 33.8099963,116.97 34.552,116.97 C35.2800036,116.97 35.8609978,116.749502 36.295,116.3085 Z M45.380125,119.7525 C45.2751245,119.647499 45.222625,119.525001 45.222625,119.385 L45.222625,105.756 C45.222625,105.601999 45.2716245,105.472501 45.369625,105.3675 C45.4676255,105.262499 45.5936242,105.21 45.747625,105.21 L51.690625,105.21 C53.5106341,105.21 54.9386198,105.622996 55.974625,106.449 C57.0106302,107.275004 57.528625,108.485992 57.528625,110.082 C57.528625,111.678008 57.0106302,112.871496 55.974625,113.6625 C54.9386198,114.453504 53.5106341,114.849 51.690625,114.849 L49.296625,114.849 L49.296625,119.385 C49.296625,119.525001 49.2476255,119.647499 49.149625,119.7525 C49.0516245,119.857501 48.9256258,119.91 48.771625,119.91 L45.747625,119.91 C45.6076243,119.91 45.4851255,119.857501 45.380125,119.7525 Z M51.585625,111.846 C52.1596279,111.846 52.6111234,111.695502 52.940125,111.3945 C53.2691267,111.093498 53.433625,110.649003 53.433625,110.061 C53.433625,109.514997 53.2831265,109.074002 52.982125,108.738 C52.6811235,108.401998 52.2156282,108.234 51.585625,108.234 L49.233625,108.234 L49.233625,111.846 L51.585625,111.846 Z M61.38475,119.7525 C61.2797495,119.647499 61.22725,119.525001 61.22725,119.385 L61.22725,105.756 C61.22725,105.601999 61.2762495,105.472501 61.37425,105.3675 C61.4722505,105.262499 61.5982493,105.21 61.75225,105.21 L71.66425,105.21 C71.8182508,105.21 71.9477495,105.262499 72.05275,105.3675 C72.1577506,105.472501 72.21025,105.601999 72.21025,105.756 L72.21025,107.835 C72.21025,107.989001 72.1577506,108.115 72.05275,108.213 C71.9477495,108.311 71.8182508,108.36 71.66425,108.36 L65.02825,108.36 L65.02825,111.027 L71.20225,111.027 C71.3562508,111.027 71.4857495,111.079499 71.59075,111.1845 C71.6957506,111.289501 71.74825,111.418999 71.74825,111.573 L71.74825,113.484 C71.74825,113.638001 71.6957506,113.767499 71.59075,113.8725 C71.4857495,113.977501 71.3562508,114.03 71.20225,114.03 L65.02825,114.03 L65.02825,116.76 L71.83225,116.76 C71.9862508,116.76 72.1157495,116.812499 72.22075,116.9175 C72.3257506,117.022501 72.37825,117.151999 72.37825,117.306 L72.37825,119.385 C72.37825,119.539001 72.3257506,119.665 72.22075,119.763 C72.1157495,119.861 71.9862508,119.91 71.83225,119.91 L61.75225,119.91 C61.6122493,119.91 61.4897506,119.857501 61.38475,119.7525 Z M76.6123751,119.7525 C76.5073745,119.647499 76.4548751,119.525001 76.4548751,119.385 L76.4548751,105.756 C76.4548751,105.601999 76.5038746,105.472501 76.6018751,105.3675 C76.6998755,105.262499 76.8258743,105.21 76.9798751,105.21 L79.3528751,105.21 C79.6748767,105.21 79.9128743,105.342999 80.0668751,105.609 L85.0228751,113.442 L85.0228751,105.756 C85.0228751,105.601999 85.0718746,105.472501 85.1698751,105.3675 C85.2678755,105.262499 85.3938743,105.21 85.5478751,105.21 L88.2148751,105.21 C88.3688758,105.21 88.4948746,105.262499 88.5928751,105.3675 C88.6908755,105.472501 88.7398751,105.601999 88.7398751,105.756 L88.7398751,119.364 C88.7398751,119.518001 88.6908755,119.647499 88.5928751,119.7525 C88.4948746,119.857501 88.3688758,119.91 88.2148751,119.91 L85.8418751,119.91 C85.5198734,119.91 85.2818758,119.777001 85.1278751,119.511 L80.1928751,111.993 L80.1928751,119.385 C80.1928751,119.539001 80.1403756,119.665 80.0353751,119.763 C79.9303745,119.861 79.8008758,119.91 79.6468751,119.91 L76.9798751,119.91 C76.8398744,119.91 76.7173756,119.857501 76.6123751,119.7525 Z" id="path-8"></path>
        <filter x="-2.5%" y="-9.9%" width="104.9%" height="119.8%" filterUnits="objectBoundingBox" id="filter-9">
            <feOffset dx="0" dy="0" in="SourceAlpha" result="shadowOffsetOuter1"></feOffset>
            <feGaussianBlur stdDeviation="0.5" in="shadowOffsetOuter1" result="shadowBlurOuter1"></feGaussianBlur>
            <feColorMatrix values="0 0 0 0 0   0 0 0 0 0   0 0 0 0 0  0 0 0 0.5 0" type="matrix" in="shadowBlurOuter1"></feColorMatrix>
        </filter>
        <path d="M47,166.5 C47,165.679688 46.3203125,165 45.5,165 C44.6796875,165 44,165.679688 44,166.5 C44,167.320313 44.6796875,168 45.5,168 C46.3203125,168 47,167.320313 47,166.5 Z M74,153 C74,151.40625 72.5703125,150 71,150 L62.75,150 C62.75,147.257812 65,145.265625 65,142.5 C65,139.757812 64.4609375,138 61.25,138 C59.75,139.523438 60.5234375,143.109375 58.25,145.5 C57.59375,146.179688 57.03125,146.90625 56.4453125,147.632812 C55.390625,148.992188 52.6015625,153 50.75,153 L50,153 L50,168 L50.75,168 C52.0625,168 54.21875,168.84375 55.484375,169.289062 C58.0625,170.179688 60.734375,171 63.5,171 L66.3359375,171 C68.984375,171 70.8359375,169.945312 70.8359375,167.085938 C70.8359375,166.640625 70.7890625,166.195312 70.71875,165.773438 C71.703125,165.234375 72.2421875,163.898438 72.2421875,162.820312 C72.2421875,162.257812 72.1015625,161.695312 71.8203125,161.203125 C72.6171875,160.453125 73.0625,159.515625 73.0625,158.414062 C73.0625,157.664062 72.734375,156.5625 72.2421875,156 C73.34375,155.976562 74,153.867188 74,153 Z M77,152.976562 C77,154.335938 76.6015625,155.671875 75.8515625,156.796875 C75.9921875,157.3125 76.0625,157.875 76.0625,158.414062 C76.0625,159.585938 75.7578125,160.757812 75.171875,161.789062 C75.21875,162.117188 75.2421875,162.46875 75.2421875,162.796875 C75.2421875,164.296875 74.75,165.796875 73.8359375,166.96875 C73.8828125,171.398438 70.859375,174 66.5234375,174 L63.5,174 C60.171875,174 57.078125,173.015625 53.984375,171.9375 C53.3046875,171.703125 51.40625,171 50.75,171 L44,171 C42.3359375,171 41,169.664062 41,168 L41,153 C41,151.335938 42.3359375,150 44,150 L50.421875,150 C51.3359375,149.390625 52.9296875,147.28125 53.6328125,146.367188 C54.4296875,145.335938 55.25,144.328125 56.140625,143.367188 C57.546875,141.867188 56.796875,138.164062 59.140625,135.867188 C59.703125,135.328125 60.453125,135 61.25,135 C63.6875,135 66.03125,135.867188 67.1796875,138.140625 C67.90625,139.570312 68,140.929688 68,142.5 C68,144.140625 67.578125,145.546875 66.875,147 L71,147 C74.234375,147 77,149.742188 77,152.976562 Z" id="path-10"></path>
        <filter x="-4.2%" y="-3.8%" width="108.3%" height="107.7%" filterUnits="objectBoundingBox" id="filter-11">
            <feOffset dx="0" dy="0" in="SourceAlpha" result="shadowOffsetOuter1"></feOffset>
            <feGaussianBlur stdDeviation="0.5" in="shadowOffsetOuter1" result="shadowBlurOuter1"></feGaussianBlur>
            <feColorMatrix values="0 0 0 0 0   0 0 0 0 0   0 0 0 0 0  0 0 0 0.5 0" type="matrix" in="shadowBlurOuter1"></feColorMatrix>
        </filter>
    </defs>
    <g id="Page-1" stroke="none" stroke-width="1" fill="none" fill-rule="evenodd">
        <g id="Homepage" transform="translate(-661.000000, -456.000000)">
            <g id="Ribbon" transform="translate(661.000000, 456.000000)">
                <g id="Oval-5">
                    <mask id="mask-3" fill="white">
                        <use xlink:href="#path-2"></use>
                    </mask>
                    <use id="Mask" fill="url(#linearGradient-1)" xlink:href="#path-2"></use>
                    <path d="M59,80.3224474 C128.864021,80.3224474 186,20.3640208 186,-49.5 C186,-119.364021 129.364021,-176 59.5,-176 C-10.3640208,-176 -67,-119.364021 -67,-49.5 C-67,20.3640208 -10.8640208,80.3224474 59,80.3224474 Z" fill="#F17400" mask="url(#mask-3)"></path>
                    <mask id="mask-5" fill="white">
                        <use xlink:href="#path-4"></use>
                    </mask>
                    <g id="Mask" stroke-dasharray="2,3">
                        <use fill="black" fill-opacity="1" filter="url(#filter-6)" xlink:href="#path-4"></use>
                        <use stroke="#C36402" mask="url(#mask-7)" stroke-width="2" xlink:href="#path-4"></use>
                    </g>
                </g>
                <g id="OPEN">
                    <use fill="black" fill-opacity="1" filter="url(#filter-9)" xlink:href="#path-8"></use>
                    <use fill="#FFFFFF" fill-rule="evenodd" xlink:href="#path-8"></use>
                </g>
                <g id="">
                    <use fill="black" fill-opacity="1" filter="url(#filter-11)" xlink:href="#path-10"></use>
                    <use fill="#FFFFFF" fill-rule="evenodd" xlink:href="#path-10"></use>
                </g>
            </g>
        </g>
    </g>
</svg>